# xmcd
#
# Track frame offsets: 
#        150
#        16565
#        28813
#        47917
#        60024
#        72412
#        86470
#        98873
#        117702
#        131822
#        154857
#        170869
#
# Disc length: 2908 seconds
#
# Revision: 0
# Processed by: cddbd v1.5.1PL2 Copyright (c) Steve Scherf et al.
# Submitted via: ExactAudioCopy v0.95b1
#
DISCID=a00b5a0c
DTITLE=Built for Speed - Gretschoholic ...and Other Love Songs
DYEAR=2004
DGENRE=Rock'n'Roll
TTITLE0=What's Wrong Now?
TTITLE1=Doing All Right
TTITLE2=Devil in Disguise Part 2
TTITLE3=Red Hot Mama
TTITLE4=Rockabilly Record Rack
TTITLE5=Crazy 'Bout TV Soap
TTITLE6=Gretschoholic
TTITLE7=If I Had Me A Woman
TTITLE8=She's A Guy
TTITLE9=Daydream
TTITLE10=Don't Blame It on Me
TTITLE11=Losin' My Mind
EXTD=
EXTT0=
EXTT1=
EXTT2=
EXTT3=
EXTT4=
EXTT5=
EXTT6=
EXTT7=
EXTT8=
EXTT9=
EXTT10=
EXTT11=
PLAYORDER=
